<?xml version="1.0" encoding="UTF-8" standalone="no"?>
<svg
   xmlns:rdf="http://www.w3.org/1999/02/22-rdf-syntax-ns#"
   xmlns:svg="http://www.w3.org/2000/svg"
   xmlns="http://www.w3.org/2000/svg"
   id="svg3820"
   version="1.1"
   viewBox="0 0 85 70"
   height="70mm"
   width="85mm">

   <g
      transform="translate(0,-227)"
      id="layer1">
         <defs>
            <linearGradient id="grad2" x1="0%" y1="0%" x2="0%" y2="100%">
               <stop offset="0%" style="stop-color:#ED683D;stop-opacity:1" />
               <stop offset="100%" style="stop-color:#FD6A94;stop-opacity:0.6" />
            </linearGradient>
         </defs>
      <path
         style="fill:url(#grad2);stroke-width:0.26458332"
         d="m 38.070356,291.86158 c -7.00812,-0.52902 -14.08723,-2.38744 -19.97604,-5.24415 -4.22509,-2.04962 -6.81419,-3.85152 -9.6572895,-6.72101 -4.0663602,-4.10413 -5.6788702,-7.53349 -5.6716102,-12.0619 0.009,-5.61535 2.36417,-9.09796 7.2500697,-10.7207 0.94091,-0.3125 4.52346,-0.97331 7.96121,-1.46845 8.40056,-1.20996 11.84081,-2.24613 15.74095,-4.74102 1.91521,-1.22515 4.53999,-3.70793 6.15704,-5.82399 4.49638,-5.88391 8.898552,-9.20325 14.070672,-10.60969 3.95314,-1.07496 9.37006,-0.45809 13.30833,1.51552 3.53921,1.77364 7.53703,5.35411 9.80038,8.77732 6.113757,9.24663 6.471447,20.95543 0.91755,30.03412 -7.09311,11.59477 -22.88543,18.34843 -39.901262,17.06395 z"
         id="path3775" />
   </g>
</svg>
